<mxfile host="app.diagrams.net" modified="2021-02-13T19:45:34.528Z" agent="5.0 (Macintosh)" etag="cQaYoOk1TiF1gpzaJDli" version="14.3.1" type="github">
  <diagram id="UDUms_5fdwR87IG5MNU-" name="Page-1">
    <mxGraphModel dx="1426" dy="831" grid="1" gridSize="10" guides="1" tooltips="1" connect="1" arrows="1" fold="1" page="1" pageScale="1" pageWidth="850" pageHeight="1100" math="0" shadow="0">
      <root>
        <mxCell id="0" />
        <mxCell id="1" parent="0" />
        <mxCell id="P6LFtpPHm1KU4pTPuyG8-3" style="edgeStyle=orthogonalEdgeStyle;rounded=0;orthogonalLoop=1;jettySize=auto;html=1;" edge="1" parent="1" source="P6LFtpPHm1KU4pTPuyG8-1" target="P6LFtpPHm1KU4pTPuyG8-2">
          <mxGeometry relative="1" as="geometry">
            <Array as="points">
              <mxPoint x="365" y="620" />
              <mxPoint x="245" y="620" />
            </Array>
          </mxGeometry>
        </mxCell>
        <mxCell id="P6LFtpPHm1KU4pTPuyG8-6" style="edgeStyle=orthogonalEdgeStyle;rounded=0;orthogonalLoop=1;jettySize=auto;html=1;" edge="1" parent="1" source="P6LFtpPHm1KU4pTPuyG8-1" target="P6LFtpPHm1KU4pTPuyG8-5">
          <mxGeometry relative="1" as="geometry">
            <Array as="points">
              <mxPoint x="365" y="630" />
              <mxPoint x="485" y="630" />
            </Array>
          </mxGeometry>
        </mxCell>
        <mxCell id="P6LFtpPHm1KU4pTPuyG8-13" style="edgeStyle=orthogonalEdgeStyle;rounded=0;orthogonalLoop=1;jettySize=auto;html=1;" edge="1" parent="1" source="P6LFtpPHm1KU4pTPuyG8-1" target="P6LFtpPHm1KU4pTPuyG8-10">
          <mxGeometry relative="1" as="geometry" />
        </mxCell>
        <mxCell id="P6LFtpPHm1KU4pTPuyG8-1" value="Inflight Parent Node" style="rounded=0;whiteSpace=wrap;html=1;" vertex="1" parent="1">
          <mxGeometry x="305" y="590" width="120" height="60" as="geometry" />
        </mxCell>
        <mxCell id="P6LFtpPHm1KU4pTPuyG8-9" style="edgeStyle=orthogonalEdgeStyle;rounded=0;orthogonalLoop=1;jettySize=auto;html=1;" edge="1" parent="1" source="P6LFtpPHm1KU4pTPuyG8-2" target="P6LFtpPHm1KU4pTPuyG8-8">
          <mxGeometry relative="1" as="geometry" />
        </mxCell>
        <mxCell id="P6LFtpPHm1KU4pTPuyG8-33" style="edgeStyle=orthogonalEdgeStyle;rounded=0;orthogonalLoop=1;jettySize=auto;html=1;" edge="1" parent="1" source="P6LFtpPHm1KU4pTPuyG8-2" target="P6LFtpPHm1KU4pTPuyG8-32">
          <mxGeometry relative="1" as="geometry" />
        </mxCell>
        <mxCell id="P6LFtpPHm1KU4pTPuyG8-2" value="Inflight Child Node 1" style="rounded=0;whiteSpace=wrap;html=1;" vertex="1" parent="1">
          <mxGeometry x="185" y="680" width="120" height="60" as="geometry" />
        </mxCell>
        <mxCell id="P6LFtpPHm1KU4pTPuyG8-4" value="Ethernet" style="text;html=1;strokeColor=none;fillColor=none;align=center;verticalAlign=middle;whiteSpace=wrap;rounded=0;" vertex="1" parent="1">
          <mxGeometry x="200" y="650" width="40" height="20" as="geometry" />
        </mxCell>
        <mxCell id="P6LFtpPHm1KU4pTPuyG8-21" style="edgeStyle=orthogonalEdgeStyle;rounded=0;orthogonalLoop=1;jettySize=auto;html=1;" edge="1" parent="1" source="P6LFtpPHm1KU4pTPuyG8-5" target="P6LFtpPHm1KU4pTPuyG8-19">
          <mxGeometry relative="1" as="geometry" />
        </mxCell>
        <mxCell id="P6LFtpPHm1KU4pTPuyG8-40" style="edgeStyle=orthogonalEdgeStyle;rounded=0;orthogonalLoop=1;jettySize=auto;html=1;" edge="1" parent="1" source="P6LFtpPHm1KU4pTPuyG8-5" target="P6LFtpPHm1KU4pTPuyG8-37">
          <mxGeometry relative="1" as="geometry" />
        </mxCell>
        <mxCell id="P6LFtpPHm1KU4pTPuyG8-5" value="Inflight Child Node 2" style="rounded=0;whiteSpace=wrap;html=1;" vertex="1" parent="1">
          <mxGeometry x="425" y="690" width="120" height="60" as="geometry" />
        </mxCell>
        <mxCell id="P6LFtpPHm1KU4pTPuyG8-7" value="Ethernet" style="text;html=1;strokeColor=none;fillColor=none;align=center;verticalAlign=middle;whiteSpace=wrap;rounded=0;" vertex="1" parent="1">
          <mxGeometry x="490" y="650" width="40" height="20" as="geometry" />
        </mxCell>
        <mxCell id="P6LFtpPHm1KU4pTPuyG8-23" style="edgeStyle=orthogonalEdgeStyle;rounded=0;orthogonalLoop=1;jettySize=auto;html=1;" edge="1" parent="1" source="P6LFtpPHm1KU4pTPuyG8-8" target="P6LFtpPHm1KU4pTPuyG8-22">
          <mxGeometry relative="1" as="geometry" />
        </mxCell>
        <mxCell id="P6LFtpPHm1KU4pTPuyG8-8" value="Analog/Digital Converter" style="rounded=0;whiteSpace=wrap;html=1;" vertex="1" parent="1">
          <mxGeometry x="185" y="790" width="120" height="60" as="geometry" />
        </mxCell>
        <mxCell id="P6LFtpPHm1KU4pTPuyG8-10" value="Sensors that can be placed anywhere" style="rounded=0;whiteSpace=wrap;html=1;" vertex="1" parent="1">
          <mxGeometry x="590" y="590" width="120" height="60" as="geometry" />
        </mxCell>
        <mxCell id="P6LFtpPHm1KU4pTPuyG8-14" value="SPI or I2C" style="text;html=1;strokeColor=none;fillColor=none;align=center;verticalAlign=middle;whiteSpace=wrap;rounded=0;" vertex="1" parent="1">
          <mxGeometry x="480" y="600" width="60" height="20" as="geometry" />
        </mxCell>
        <mxCell id="P6LFtpPHm1KU4pTPuyG8-31" style="edgeStyle=orthogonalEdgeStyle;rounded=0;orthogonalLoop=1;jettySize=auto;html=1;" edge="1" parent="1" source="P6LFtpPHm1KU4pTPuyG8-15" target="P6LFtpPHm1KU4pTPuyG8-29">
          <mxGeometry relative="1" as="geometry" />
        </mxCell>
        <mxCell id="P6LFtpPHm1KU4pTPuyG8-15" value="Ground Node" style="rounded=0;whiteSpace=wrap;html=1;" vertex="1" parent="1">
          <mxGeometry x="305" y="200" width="120" height="60" as="geometry" />
        </mxCell>
        <mxCell id="P6LFtpPHm1KU4pTPuyG8-18" value="SPI or I2C" style="text;html=1;strokeColor=none;fillColor=none;align=center;verticalAlign=middle;whiteSpace=wrap;rounded=0;" vertex="1" parent="1">
          <mxGeometry x="250" y="750" width="60" height="20" as="geometry" />
        </mxCell>
        <mxCell id="P6LFtpPHm1KU4pTPuyG8-25" style="edgeStyle=orthogonalEdgeStyle;rounded=0;orthogonalLoop=1;jettySize=auto;html=1;" edge="1" parent="1" source="P6LFtpPHm1KU4pTPuyG8-19" target="P6LFtpPHm1KU4pTPuyG8-24">
          <mxGeometry relative="1" as="geometry" />
        </mxCell>
        <mxCell id="P6LFtpPHm1KU4pTPuyG8-19" value="Analog/Digital Converter" style="rounded=0;whiteSpace=wrap;html=1;" vertex="1" parent="1">
          <mxGeometry x="425" y="780" width="120" height="60" as="geometry" />
        </mxCell>
        <mxCell id="P6LFtpPHm1KU4pTPuyG8-20" value="SPI or I2C" style="text;html=1;strokeColor=none;fillColor=none;align=center;verticalAlign=middle;whiteSpace=wrap;rounded=0;" vertex="1" parent="1">
          <mxGeometry x="485" y="750" width="60" height="20" as="geometry" />
        </mxCell>
        <mxCell id="P6LFtpPHm1KU4pTPuyG8-22" value="Analog sensors" style="rounded=0;whiteSpace=wrap;html=1;" vertex="1" parent="1">
          <mxGeometry x="185" y="890" width="120" height="60" as="geometry" />
        </mxCell>
        <mxCell id="P6LFtpPHm1KU4pTPuyG8-24" value="Analog sensors" style="rounded=0;whiteSpace=wrap;html=1;" vertex="1" parent="1">
          <mxGeometry x="425" y="880" width="120" height="60" as="geometry" />
        </mxCell>
        <mxCell id="P6LFtpPHm1KU4pTPuyG8-28" style="edgeStyle=orthogonalEdgeStyle;rounded=0;orthogonalLoop=1;jettySize=auto;html=1;" edge="1" parent="1" source="P6LFtpPHm1KU4pTPuyG8-27" target="P6LFtpPHm1KU4pTPuyG8-1">
          <mxGeometry relative="1" as="geometry" />
        </mxCell>
        <mxCell id="P6LFtpPHm1KU4pTPuyG8-27" value="Long range wireless transciver" style="rounded=0;whiteSpace=wrap;html=1;" vertex="1" parent="1">
          <mxGeometry x="305" y="490" width="120" height="60" as="geometry" />
        </mxCell>
        <mxCell id="P6LFtpPHm1KU4pTPuyG8-30" style="edgeStyle=orthogonalEdgeStyle;rounded=0;orthogonalLoop=1;jettySize=auto;html=1;" edge="1" parent="1" source="P6LFtpPHm1KU4pTPuyG8-29" target="P6LFtpPHm1KU4pTPuyG8-27">
          <mxGeometry relative="1" as="geometry" />
        </mxCell>
        <mxCell id="P6LFtpPHm1KU4pTPuyG8-29" value="Long range wireless transciver" style="rounded=0;whiteSpace=wrap;html=1;" vertex="1" parent="1">
          <mxGeometry x="305" y="360" width="120" height="60" as="geometry" />
        </mxCell>
        <mxCell id="P6LFtpPHm1KU4pTPuyG8-32" value="Location specific digital sensors" style="rounded=0;whiteSpace=wrap;html=1;" vertex="1" parent="1">
          <mxGeometry x="40" y="790" width="120" height="60" as="geometry" />
        </mxCell>
        <mxCell id="P6LFtpPHm1KU4pTPuyG8-34" value="SPI/I2C" style="text;html=1;strokeColor=none;fillColor=none;align=center;verticalAlign=middle;whiteSpace=wrap;rounded=0;" vertex="1" parent="1">
          <mxGeometry x="50" y="720" width="40" height="20" as="geometry" />
        </mxCell>
        <mxCell id="P6LFtpPHm1KU4pTPuyG8-35" value="Two way Wireless protocol with data validation" style="text;html=1;strokeColor=none;fillColor=none;align=center;verticalAlign=middle;whiteSpace=wrap;rounded=0;" vertex="1" parent="1">
          <mxGeometry x="370" y="440" width="140" height="20" as="geometry" />
        </mxCell>
        <mxCell id="P6LFtpPHm1KU4pTPuyG8-37" value="Location specific digital sensors" style="rounded=0;whiteSpace=wrap;html=1;" vertex="1" parent="1">
          <mxGeometry x="600" y="780" width="120" height="60" as="geometry" />
        </mxCell>
        <mxCell id="P6LFtpPHm1KU4pTPuyG8-38" value="SPI/I2C" style="text;html=1;strokeColor=none;fillColor=none;align=center;verticalAlign=middle;whiteSpace=wrap;rounded=0;" vertex="1" parent="1">
          <mxGeometry x="670" y="720" width="40" height="20" as="geometry" />
        </mxCell>
      </root>
    </mxGraphModel>
  </diagram>
</mxfile>
